<svg xmlns="http://www.w3.org/2000/svg" xmlns:xlink="http://www.w3.org/1999/xlink">
    <symbol id="vk-usage" viewBox="0 0 14 8"><path d="M13.38 6.966a.886.886 0 00-.044-.084c-.224-.403-.651-.898-1.282-1.484l-.014-.013-.006-.007-.007-.007h-.007a7.771 7.771 0 01-.544-.55c-.139-.18-.17-.36-.094-.544.054-.14.255-.432.604-.88.184-.237.33-.427.437-.57.774-1.03 1.11-1.688 1.007-1.975l-.04-.067c-.027-.04-.096-.077-.208-.11a1.057 1.057 0 00-.43-.017L10.818.67a.25.25 0 00-.134.003l-.087.02-.034.017-.027.02a.299.299 0 00-.073.071.463.463 0 00-.067.118 10.96 10.96 0 01-.719 1.51c-.166.278-.318.518-.457.722a3.472 3.472 0 01-.349.45 2.435 2.435 0 01-.255.232c-.076.058-.134.083-.174.074a4.86 4.86 0 01-.115-.027.446.446 0 01-.15-.165.737.737 0 01-.078-.262 2.887 2.887 0 01-.02-.594c.005-.139.007-.233.007-.282 0-.17.003-.355.01-.554l.016-.473c.005-.117.007-.24.007-.37S8.111.95 8.096.876a1.045 1.045 0 00-.07-.215A.362.362 0 007.887.5a.776.776 0 00-.225-.091 4.468 4.468 0 00-.907-.087C5.924.312 5.39.367 5.151.483a.905.905 0 00-.255.201c-.08.099-.092.153-.033.161.268.04.458.137.57.29l.04.08c.032.058.063.161.095.309.03.147.051.31.06.49.022.327.022.606 0 .84a9.998 9.998 0 01-.064.543 1.09 1.09 0 01-.171.463.116.116 0 01-.034.034.503.503 0 01-.18.033.417.417 0 01-.23-.094 1.611 1.611 0 01-.278-.258 3.456 3.456 0 01-.326-.46 8.024 8.024 0 01-.375-.698l-.108-.195a16.729 16.729 0 01-.275-.547 10.55 10.55 0 01-.31-.695.443.443 0 00-.16-.215l-.034-.02a.713.713 0 00-.262-.1L.981.656C.795.657.667.7.6.785l-.027.04a.217.217 0 00-.02.108c0 .049.013.11.04.18.269.632.56 1.24.876 1.827.316.587.59 1.06.823 1.417.233.358.47.696.712 1.014.241.318.401.521.48.61.078.09.14.158.184.202l.168.162c.108.107.265.236.474.386.208.15.438.297.691.443.253.145.547.264.883.356.336.091.663.128.98.11h.773a.535.535 0 00.356-.147l.026-.034a.445.445 0 00.05-.124.682.682 0 00.024-.185c-.004-.192.01-.365.044-.52.033-.154.071-.27.114-.35a.859.859 0 01.259-.294.437.437 0 01.053-.024c.108-.036.234-.001.38.104.145.105.282.235.41.39.127.154.28.328.46.52.178.193.335.336.47.43l.134.08c.09.054.206.103.349.148a.753.753 0 00.376.034l1.719-.027c.17 0 .302-.028.396-.084.094-.056.15-.118.168-.185a.52.52 0 00.003-.228.843.843 0 00-.047-.178z"/></symbol>
    <symbol id="insta-usage" viewBox="0 0 17 17"><path d="M11.936.552H4.891A4.344 4.344 0 00.55 4.89v7.045a4.344 4.344 0 004.34 4.34h7.045a4.344 4.344 0 004.34-4.34V4.891a4.344 4.344 0 00-4.34-4.34zm2.945 11.385a2.948 2.948 0 01-2.944 2.944H4.89a2.947 2.947 0 01-2.944-2.944V4.89A2.947 2.947 0 014.89 1.947h7.045a2.948 2.948 0 012.945 2.944v7.046z"/><path d="M8.414 4.362a4.056 4.056 0 00-4.052 4.052 4.056 4.056 0 004.052 4.052 4.056 4.056 0 004.051-4.052 4.056 4.056 0 00-4.051-4.052zm0 6.708a2.66 2.66 0 01-2.657-2.656c0-1.465 1.192-2.657 2.657-2.657S11.07 6.95 11.07 8.414a2.66 2.66 0 01-2.656 2.656zm4.221-7.89a1.027 1.027 0 00-1.023 1.022c0 .27.11.533.3.724.19.19.455.3.723.3.27 0 .533-.11.724-.3a1.028 1.028 0 000-1.447c-.19-.191-.454-.3-.724-.3z"/></symbol>
    <symbol id="telegram-usage" viewBox="0 0 256 256"><path d="M228.646,34.7676a11.96514,11.96514,0,0,0-12.21778-2.0752L31.87109,105.19729a11.99915,11.99915,0,0,0,2.03467,22.93457L84,138.15139v61.833a11.8137,11.8137,0,0,0,7.40771,11.08593,12.17148,12.17148,0,0,0,4.66846.94434,11.83219,11.83219,0,0,0,8.40918-3.5459l28.59619-28.59619L175.2749,217.003a11.89844,11.89844,0,0,0,7.88819,3.00195,12.112,12.112,0,0,0,3.72265-.59082,11.89762,11.89762,0,0,0,8.01319-8.73925L232.5127,46.542A11.97177,11.97177,0,0,0,228.646,34.7676ZM32.2749,116.71877a3.86572,3.86572,0,0,1,2.522-4.07617L203.97217,46.18044,87.07227,130.60769,35.47461,120.28811A3.86618,3.86618,0,0,1,32.2749,116.71877Zm66.55322,86.09375A3.99976,3.99976,0,0,1,92,199.9844V143.72048l35.064,30.85669ZM224.71484,44.7549,187.10107,208.88772a4.0003,4.0003,0,0,1-6.5415,2.10937l-86.1543-75.8164,129.66309-93.645A3.80732,3.80732,0,0,1,224.71484,44.7549Z"/></symbol>
    <symbol id="youtube-usage" viewBox="0 0 12 16"><path d="M10.055 11.257h-.772l.003-.449c0-.2.164-.362.364-.362h.05c.2 0 .364.163.364.362l-.01.449zm-2.896-.961c-.196 0-.356.131-.356.292v2.181c0 .161.16.293.356.293.197 0 .357-.132.357-.293v-2.18c0-.162-.16-.294-.357-.294zm4.703-1.22v4.149c0 .995-.863 1.81-1.918 1.81H2.056c-1.055 0-1.918-.815-1.918-1.81v-4.15c0-.995.863-1.81 1.918-1.81h7.888c1.055 0 1.918.815 1.918 1.81zm-9.28 4.6V9.303h.978v-.647L.953 8.653v.637l.814.002v4.383h.815zm2.931-3.72h-.815v2.334c0 .337.02.506-.001.566-.066.18-.364.373-.48.02-.02-.063-.003-.25-.003-.57l-.003-2.35H3.4l.002 2.313c.001.354-.008.619.003.739.02.212.013.46.21.6.367.265 1.07-.039 1.245-.416l-.001.482h.655V9.955zm2.608 2.672l-.001-1.942c-.001-.74-.555-1.184-1.307-.585l.004-1.444-.815.001L6 13.643l.67-.01.06-.31c.856.785 1.394.247 1.392-.695zm2.552-.257l-.612.003-.001.083v.34a.334.334 0 01-.334.332h-.12a.334.334 0 01-.334-.331V11.9h1.4v-.527c0-.385-.01-.77-.042-.99-.1-.696-1.078-.807-1.571-.45a.92.92 0 00-.343.46c-.069.2-.103.474-.103.821v1.159c0 1.925 2.339 1.653 2.06-.003zM7.537 6.082a.555.555 0 00.196.248c.088.062.2.092.334.092a.519.519 0 00.312-.097.75.75 0 00.229-.292l-.016.32h.909V2.488h-.715v3.008a.298.298 0 01-.596 0V2.488h-.747v2.607c0 .332.006.553.016.665.01.112.036.219.078.322zM4.783 3.9c0-.371.031-.66.093-.87a.97.97 0 01.334-.501c.16-.127.366-.19.616-.19.21 0 .39.04.54.122a.9.9 0 01.35.317c.082.13.138.265.167.402.03.14.046.35.046.633v.977c0 .359-.014.622-.042.79a1.252 1.252 0 01-.18.47.85.85 0 01-.35.32c-.143.07-.307.104-.492.104a1.37 1.37 0 01-.526-.088.721.721 0 01-.335-.268 1.19 1.19 0 01-.17-.433 4.176 4.176 0 01-.051-.762V3.9zm.712 1.535c0 .219.163.397.361.397.199 0 .361-.178.361-.397V3.378c0-.219-.162-.398-.36-.398-.199 0-.362.18-.362.398v2.057zM2.98 6.474h.858V3.51L4.851.97h-.937l-.539 1.887L2.83.966h-.928L2.98 3.51l.001 2.963z"/><path d="M10.055 11.257h-.772l.003-.449c0-.2.164-.362.364-.362h.05c.2 0 .364.163.364.362l-.01.449zm-2.896-.961c-.196 0-.356.131-.356.292v2.181c0 .161.16.293.356.293.197 0 .357-.132.357-.293v-2.18c0-.162-.16-.294-.357-.294zm4.703-1.22v4.149c0 .995-.863 1.81-1.918 1.81H2.056c-1.055 0-1.918-.815-1.918-1.81v-4.15c0-.995.863-1.81 1.918-1.81h7.888c1.055 0 1.918.815 1.918 1.81zm-9.28 4.6V9.303h.978v-.647L.953 8.653v.637l.814.002v4.383h.815zm2.931-3.72h-.815v2.334c0 .337.02.506-.001.566-.066.18-.364.373-.48.02-.02-.063-.003-.25-.003-.57l-.003-2.35H3.4l.002 2.313c.001.354-.008.619.003.739.02.212.013.46.21.6.367.265 1.07-.039 1.245-.416l-.001.482h.655V9.955zm2.608 2.672l-.001-1.942c-.001-.74-.555-1.184-1.307-.585l.004-1.444-.815.001L6 13.643l.67-.01.06-.31c.856.785 1.394.247 1.392-.695zm2.552-.257l-.612.003-.001.083v.34a.334.334 0 01-.334.332h-.12a.334.334 0 01-.334-.331V11.9h1.4v-.527c0-.385-.01-.77-.042-.99-.1-.696-1.078-.807-1.571-.45a.92.92 0 00-.343.46c-.069.2-.103.474-.103.821v1.159c0 1.925 2.339 1.653 2.06-.003zM7.537 6.082a.555.555 0 00.196.248c.088.062.2.092.334.092a.519.519 0 00.312-.097.75.75 0 00.229-.292l-.016.32h.909V2.488h-.715v3.008a.298.298 0 01-.596 0V2.488h-.747v2.607c0 .332.006.553.016.665.01.112.036.219.078.322zM4.783 3.9c0-.371.031-.66.093-.87a.97.97 0 01.334-.501c.16-.127.366-.19.616-.19.21 0 .39.04.54.122a.9.9 0 01.35.317c.082.13.138.265.167.402.03.14.046.35.046.633v.977c0 .359-.014.622-.042.79a1.252 1.252 0 01-.18.47.85.85 0 01-.35.32c-.143.07-.307.104-.492.104a1.37 1.37 0 01-.526-.088.721.721 0 01-.335-.268 1.19 1.19 0 01-.17-.433 4.176 4.176 0 01-.051-.762V3.9zm.712 1.535c0 .219.163.397.361.397.199 0 .361-.178.361-.397V3.378c0-.219-.162-.398-.36-.398-.199 0-.362.18-.362.398v2.057zM2.98 6.474h.858V3.51L4.851.97h-.937l-.539 1.887L2.83.966h-.928L2.98 3.51l.001 2.963z"/></symbol>
    <symbol id="fb-usage" viewBox="0 0 9 15"><path fill-rule="evenodd" clip-rule="evenodd" d="M7.857.552H6.07a3.173 3.173 0 00-3.304 3.462v1.597H.97a.284.284 0 00-.281.287V8.21a.284.284 0 00.281.287h1.796v5.837a.285.285 0 00.28.287H5.39a.283.283 0 00.28-.287V8.496h2.101a.284.284 0 00.282-.287V5.897a.29.29 0 00-.174-.264.278.278 0 00-.108-.022h-2.1V4.257a.808.808 0 01.98-.981h1.205a.284.284 0 00.283-.287V.837a.284.284 0 00-.28-.285z"/></symbol>
    <view id="view-vk-usage" viewBox="510 130 35 20"></view>
    <view id="view-insta-usage" viewBox="90 90 20 20"></view>
    <view id="view-telegram-usage" viewBox="510 130 35 20"></view>
    <view id="view-youtube-usage" viewBox="770 130 15 20"></view>
    <view id="view-fb-usage" viewBox="490 50 12 20"></view>
    <use id="vk-usage" xlink:href="#vk-usage" width="35" height="20" x="510" y="130"></use>
    <use id="insta-usage" xlink:href="#insta-usage" width="20" height="20" x="90" y="90"></use>
    <use id="telegram-usage" xlink:href="#telegram-usage" width="35" height="20" x="510" y="130"></use>
    <use id="youtube-usage" xlink:href="#youtube-usage" width="15" height="20" x="770" y="130"></use>
    <use id="fb-usage" xlink:href="#fb-usage" width="12" height="20" x="490" y="50"></use>
</svg>